# xmcd
#
# Track frame offsets: 
#        150
#        17825
#        36300
#        50292
#        65275
#        82352
#        96500
#        116465
#        135050
#        149557
#
# Disc length: 2211 seconds
#
# Revision: 2
# Processed by: cddbd v1.4PL0 Copyright (c) Steve Scherf et al.
# Submitted via: ExactAudioCopy v0.90b3
#
DISCID=8a08a10a
DTITLE=Earl Thomas Conley - Too Many Times
DYEAR=1900
DGENRE=Country
TTITLE0=Too Many Times
TTITLE1=I Can't Win For Losin' You
TTITLE2=Dancin' With The Flame
TTITLE3=Attracted To Pain
TTITLE4=Many Forgiving Years
TTITLE5=Right From The Start
TTITLE6=That Was A Close One
TTITLE7=I Need A Good Woman Bad
TTITLE8=Preservation Of The Wild Life
TTITLE9=If Leavin' Was Easy
EXTD=
EXTT0=
EXTT1=
EXTT2=
EXTT3=
EXTT4=
EXTT5=
EXTT6=
EXTT7=
EXTT8=
EXTT9=
PLAYORDER=
